<svg width="24" height="25" viewBox="0 0 24 25" fill="none" xmlns="http://www.w3.org/2000/svg">
<rect opacity="0.01" width="24" height="24.3892" fill="#D8D8D8"/>
<path fill-rule="evenodd" clip-rule="evenodd" d="M3.45672 6.75273C3 7.85535 3 9.25318 3 12.0488V12.3407C3 15.1364 3 16.5342 3.45672 17.6368C4.06569 19.107 5.23373 20.275 6.7039 20.884C7.80653 21.3407 9.20435 21.3407 12 21.3407C12.4806 21.3407 12.9199 21.3407 13.3235 21.3384V14.2214H11.8281V11.726H13.3235V10.2278C13.3235 8.19199 14.1678 6.98145 16.5668 6.98145H18.564V9.47715H17.3156C16.3817 9.47715 16.32 9.82589 16.32 10.4767L16.3166 11.7257H18.5781L18.3135 14.2211H16.3166V21.1631C16.6791 21.0974 16.9984 21.0073 17.2961 20.884C18.7663 20.275 19.9343 19.107 20.5433 17.6368C21 16.5342 21 15.1364 21 12.3407V12.0488C21 9.25318 21 7.85535 20.5433 6.75273C19.9343 5.28256 18.7663 4.11451 17.2961 3.50555C16.1935 3.04883 14.7956 3.04883 12 3.04883C9.20435 3.04883 7.80653 3.04883 6.7039 3.50555C5.23373 4.11451 4.06569 5.28256 3.45672 6.75273Z" fill="#0A0B09"/>
</svg>
