<svg width="24" height="25" viewBox="0 0 24 25" fill="none" xmlns="http://www.w3.org/2000/svg">
<rect opacity="0.01" width="24" height="24.3892" fill="#D8D8D8"/>
<path fill-rule="evenodd" clip-rule="evenodd" d="M6.42 5.42781C10.1027 4.7962 13.8612 4.7962 17.544 5.42781C19.65 5.82724 21 7.2763 21 9.12478V15.627C21 17.4848 19.65 18.9338 17.562 19.3425C15.7237 19.6574 13.8634 19.8158 12 19.8163C10.1423 19.8131 8.28795 19.6516 6.456 19.3332C4.314 18.8595 3 17.4755 3 15.6177V9.11549C3 7.28559 4.314 5.88297 6.42 5.42781ZM10.4156 15.5597L14.7936 12.7928V12.7651C14.9222 12.6787 15 12.5292 15 12.3685C15 12.2079 14.9222 12.0583 14.7936 11.9719L10.4156 9.20502C10.2762 9.12632 10.1086 9.12632 9.9691 9.20502C9.83435 9.29125 9.75154 9.44477 9.7502 9.61084V15.1447C9.74533 15.3173 9.82894 15.4793 9.9691 15.5689C10.0371 15.6047 10.112 15.6236 10.188 15.6243C10.2682 15.6261 10.3472 15.6037 10.4156 15.5597Z" fill="black"/>
</svg>