<svg width="24" height="25" viewBox="0 0 24 25" fill="none" xmlns="http://www.w3.org/2000/svg">
<rect opacity="0.01" width="24" height="24.3892" fill="#D8D8D8"/>
<path fill-rule="evenodd" clip-rule="evenodd" d="M11.9972 3.05469C9.55368 3.05469 9.24729 3.06522 8.28764 3.10973C7.33 3.15414 6.67596 3.30877 6.10368 3.5349C5.51204 3.76862 5.01029 4.08138 4.51007 4.58989C4.00989 5.09842 3.70225 5.60852 3.47236 6.21001C3.24993 6.79182 3.09782 7.45674 3.05414 8.43032C3.01036 9.40593 3 9.71742 3 12.2016C3 14.6857 3.01036 14.9972 3.05414 15.9728C3.09782 16.9464 3.24993 17.6113 3.47236 18.1931C3.70225 18.7946 4.00989 19.3047 4.51007 19.8132C5.01029 20.3217 5.51204 20.6345 6.10368 20.8682C6.67596 21.0943 7.33 21.249 8.28764 21.2934C9.24729 21.3379 9.55368 21.3484 11.9972 21.3484C14.4406 21.3484 14.747 21.3379 15.7067 21.2934C16.6643 21.249 17.3184 21.0943 17.8906 20.8682C18.4823 20.6345 18.984 20.3217 19.4842 19.8132C19.9844 19.3047 20.2921 18.7946 20.522 18.1931C20.7444 17.6113 20.8965 16.9464 20.9402 15.9728C20.984 14.9972 20.9943 14.6857 20.9943 12.2016C20.9943 9.71742 20.984 9.40593 20.9402 8.43032C20.8965 7.45674 20.7444 6.79182 20.522 6.21001C20.2921 5.60852 19.9844 5.09842 19.4842 4.58989C18.984 4.08138 18.4823 3.76862 17.8906 3.5349C17.3184 3.30877 16.6643 3.15414 15.7067 3.10973C14.747 3.06522 14.4406 3.05469 11.9972 3.05469ZM18.2 7.10026C18.2 7.70778 17.7075 8.20024 17.1 8.20024C16.4925 8.20024 16 7.70778 16 7.10026C16 6.49274 16.4925 6.00024 17.1 6.00024C17.7075 6.00024 18.2 6.49274 18.2 7.10026ZM12 8.00293C9.5147 8.00293 7.5 10.0503 7.5 12.5759C7.5 15.1015 9.5147 17.1489 12 17.1489C14.4853 17.1489 16.5 15.1015 16.5 12.5759C16.5 10.0503 14.4853 8.00293 12 8.00293ZM12 15.6245C10.3431 15.6245 9 14.2596 9 12.5759C9 10.8921 10.3431 9.52722 12 9.52722C13.6569 9.52722 15 10.8921 15 12.5759C15 14.2596 13.6569 15.6245 12 15.6245Z" fill="black"/>
</svg>
