<svg width="24" height="25" viewBox="0 0 24 25" fill="none" xmlns="http://www.w3.org/2000/svg">
<rect opacity="0.01" width="24" height="24.3892" fill="#D8D8D8"/>
<path fill-rule="evenodd" clip-rule="evenodd" d="M12.0204 9.15688L12.0578 9.78323L11.4346 9.70653C9.16612 9.41253 7.18433 8.41549 5.50168 6.74097L4.67905 5.9101L4.46716 6.52367C4.01845 7.8914 4.30513 9.33584 5.23993 10.3073C5.7385 10.8442 5.62632 10.9209 4.7663 10.6013C4.46716 10.4991 4.20541 10.4224 4.18049 10.4607C4.09324 10.5502 4.39238 11.7134 4.62919 12.1736C4.95326 12.8127 5.61386 13.4391 6.33677 13.8097L6.94751 14.1037L6.2246 14.1165C5.52661 14.1165 5.50168 14.1293 5.57646 14.3977C5.82574 15.2286 6.81041 16.1106 7.90725 16.4941L8.68002 16.7625L8.00696 17.1716C7.00983 17.7596 5.83821 18.0919 4.66659 18.1175C4.1057 18.1303 3.64453 18.1814 3.64453 18.2197C3.64453 18.3476 5.16515 19.0634 6.0501 19.3446C8.70495 20.1755 11.8584 19.8176 14.2265 18.3987C15.9092 17.3889 17.5918 15.382 18.3771 13.4391C18.8008 12.4037 19.2246 10.5118 19.2246 9.60427C19.2246 9.01627 19.262 8.93958 19.96 8.23653C20.3713 7.82749 20.7577 7.3801 20.8325 7.25227C20.9571 7.0094 20.9447 7.0094 20.309 7.22671C19.2496 7.61019 19.1 7.55906 19.6235 6.98384C20.0099 6.5748 20.471 5.8334 20.471 5.6161C20.471 5.57775 20.2841 5.64167 20.0722 5.75671C19.8478 5.88454 19.3493 6.07627 18.9753 6.19132L18.3023 6.40862L17.6915 5.9868C17.355 5.75671 16.8814 5.50106 16.6321 5.42436C15.9964 5.24541 15.0242 5.27097 14.4509 5.47549C12.8929 6.05071 11.9082 7.53349 12.0204 9.15688Z" fill="black"/>
</svg>
